<?xml version="1.0" encoding="UTF-8"?>
<svg width="200" height="200" viewBox="0 0 200 200" fill="none" xmlns="http://www.w3.org/2000/svg">
  <!-- Simple Python-themed logo -->
  <path d="M97.5 20C61.5 20 63.5 35 63.5 45V65H98.5V70H43.5C31.5 70 20 79 20 105C20 131 31.5 140 43.5 140H58.5V119C58.5 105 71.5 90 97.5 90H136.5C150.5 90 160.5 80 160.5 65V45C160.5 31 150.5 20 136.5 20H97.5Z" fill="#4A90E2"/>
  <path d="M102.5 180C138.5 180 136.5 165 136.5 155V135H101.5V130H156.5C168.5 130 180 121 180 95C180 69 168.5 60 156.5 60H141.5V81C141.5 95 128.5 110 102.5 110H63.5C49.5 110 39.5 120 39.5 135V155C39.5 169 49.5 180 63.5 180H102.5Z" fill="#2ECC71"/>
  <circle cx="85" cy="45" r="8" fill="white"/>
  <circle cx="115" cy="155" r="8" fill="white"/>
</svg>